<mxfile host="app.diagrams.net" modified="2023-04-14T06:56:05.889Z" agent="Mozilla/5.0 (Macintosh; Intel Mac OS X 10_15_7) AppleWebKit/537.36 (KHTML, like Gecko) Chrome/111.0.0.0 Safari/537.36" version="21.1.7" etag="8g2YnteyXVhXQHOCCkVy" type="github">
  <diagram name="Pagina-1" id="eXahhI6GwZKiH2xzaZ_R">
    <mxGraphModel>
      <root>
        <mxCell id="0" />
        <mxCell id="1" parent="0" />
      </root>
    </mxGraphModel>
  </diagram>
</mxfile>
